<svg width="158" height="49" viewBox="0 0 158 49" fill="none" xmlns="http://www.w3.org/2000/svg">
<g clip-path="url(#clip0)">
<path d="M80.7957 19.6722C80.7957 9.14874 89.3266 0.617798 99.85 0.617798H138.558C149.081 0.617798 157.612 9.14874 157.612 19.6722C157.612 30.1956 149.081 38.7266 138.558 38.7266H99.85C89.3266 38.7266 80.7957 30.1956 80.7957 19.6722Z" fill="#6C63FE"/>
<path d="M100.603 28.093C99.0077 28.093 97.5621 27.7506 96.2653 27.0655C94.9833 26.3657 93.9699 25.4052 93.2247 24.1841C92.4943 22.9482 92.1292 21.5558 92.1292 20.0072C92.1292 18.4585 92.4943 17.0736 93.2247 15.8526C93.9699 14.6166 94.9833 13.6561 96.2653 12.9711C97.5621 12.2713 99.0153 11.9213 100.625 11.9213C101.981 11.9213 103.204 12.1596 104.292 12.6361C105.395 13.1126 106.319 13.7976 107.064 14.6911L104.739 16.8354C103.68 15.6143 102.369 15.0038 100.804 15.0038C99.8349 15.0038 98.9706 15.2197 98.2104 15.6515C97.4503 16.0685 96.854 16.6567 96.4218 17.4161C96.0044 18.1756 95.7958 19.0393 95.7958 20.0072C95.7958 20.9751 96.0044 21.8388 96.4218 22.5982C96.854 23.3577 97.4503 23.9533 98.2104 24.3852C98.9706 24.8021 99.8349 25.0106 100.804 25.0106C102.369 25.0106 103.68 24.3926 104.739 23.1566L107.064 25.301C106.319 26.2094 105.395 26.9018 104.292 27.3783C103.189 27.8547 101.959 28.093 100.603 28.093ZM116.575 15.6292C118.065 15.6292 119.265 16.0759 120.174 16.9694C121.099 17.8629 121.56 19.1882 121.56 20.9453V27.825H118.073V21.4814C118.073 20.5284 117.864 19.821 117.447 19.3594C117.03 18.8829 116.426 18.6446 115.636 18.6446C114.756 18.6446 114.056 18.9201 113.534 19.4711C113.013 20.0072 112.752 20.8113 112.752 21.8835V27.825H109.264V11.2512H112.752V17.0587C113.214 16.5971 113.773 16.2472 114.428 16.0089C115.084 15.7558 115.8 15.6292 116.575 15.6292ZM129.574 15.6292C131.437 15.6292 132.868 16.0759 133.866 16.9694C134.865 17.848 135.364 19.1807 135.364 20.9677V27.825H132.1V26.3284C131.444 27.4453 130.222 28.0037 128.433 28.0037C127.509 28.0037 126.705 27.8473 126.019 27.5346C125.348 27.2219 124.834 26.7901 124.476 26.2391C124.118 25.6881 123.94 25.0627 123.94 24.3628C123.94 23.246 124.357 22.3674 125.192 21.7271C126.041 21.0868 127.345 20.7666 129.104 20.7666H131.877C131.877 20.0072 131.646 19.4264 131.183 19.0244C130.721 18.6074 130.028 18.3989 129.104 18.3989C128.463 18.3989 127.83 18.5032 127.204 18.7117C126.593 18.9052 126.071 19.1733 125.639 19.5158L124.387 17.0811C125.042 16.6194 125.825 16.2621 126.734 16.0089C127.658 15.7558 128.605 15.6292 129.574 15.6292ZM129.305 25.6583C129.902 25.6583 130.431 25.5243 130.893 25.2563C131.355 24.9733 131.683 24.5638 131.877 24.0278V22.7993H129.484C128.053 22.7993 127.338 23.2683 127.338 24.2065C127.338 24.6532 127.509 25.0106 127.852 25.2786C128.21 25.5318 128.694 25.6583 129.305 25.6583ZM146.279 27.2442C145.936 27.4973 145.511 27.691 145.005 27.825C144.513 27.944 143.991 28.0037 143.44 28.0037C142.009 28.0037 140.898 27.6389 140.108 26.9092C139.333 26.1795 138.946 25.1074 138.946 23.6927V18.7563H137.09V16.0759H138.946V13.1498H142.434V16.0759H145.429V18.7563H142.434V23.648C142.434 24.1543 142.56 24.5489 142.814 24.8319C143.082 25.0999 143.454 25.2339 143.932 25.2339C144.483 25.2339 144.952 25.085 145.34 24.7872L146.279 27.2442Z" fill="white"/>
<path d="M8.82339 29.2721C7.45817 29.2721 6.14546 29.0536 4.88526 28.6163C3.64257 28.1791 2.67992 27.6021 1.99731 26.8852L2.75869 25.3901C3.4238 26.0546 4.30767 26.5967 5.41035 27.0163C6.51302 27.4184 7.65072 27.6196 8.82339 27.6196C10.4687 27.6196 11.7026 27.3224 12.5252 26.7278C13.3479 26.1158 13.7592 25.3289 13.7592 24.3672C13.7592 23.6327 13.5317 23.047 13.0766 22.6098C12.639 22.1726 12.0964 21.8404 11.4488 21.6131C10.8012 21.3683 9.89981 21.106 8.74463 20.8262C7.36193 20.4765 6.25925 20.1442 5.4366 19.8295C4.61398 19.4972 3.90512 18.9989 3.31002 18.3344C2.73243 17.6699 2.44364 16.7693 2.44364 15.6327C2.44364 14.706 2.68867 13.8666 3.17875 13.1147C3.66883 12.3453 4.42146 11.7333 5.4366 11.2786C6.45177 10.824 7.71197 10.5967 9.2172 10.5967C10.2674 10.5967 11.2913 10.7453 12.2889 11.0426C13.3041 11.3224 14.1792 11.7158 14.9144 12.2229L14.258 13.7704C13.4879 13.2634 12.6653 12.8874 11.7901 12.6426C10.915 12.3803 10.0573 12.2491 9.2172 12.2491C7.60696 12.2491 6.39052 12.5639 5.56787 13.1934C4.76276 13.8054 4.36018 14.6011 4.36018 15.5803C4.36018 16.3147 4.57898 16.9093 5.01653 17.3639C5.47162 17.8011 6.0317 18.142 6.6968 18.3868C7.37941 18.6142 8.28956 18.8677 9.42724 19.1475C10.775 19.4797 11.8601 19.812 12.6828 20.1442C13.5229 20.459 14.2318 20.9486 14.8093 21.6131C15.3869 22.2601 15.6757 23.1431 15.6757 24.2623C15.6757 25.189 15.422 26.0371 14.9144 26.8065C14.4243 27.5585 13.6629 28.1618 12.6302 28.6163C11.5976 29.0536 10.3286 29.2721 8.82339 29.2721ZM31.9596 15.318V29.1147H30.1743V26.5967C29.6841 27.436 29.0102 28.0918 28.1527 28.5639C27.295 29.0184 26.3148 29.2459 25.2122 29.2459C23.4094 29.2459 21.9829 28.7475 20.9327 27.7508C19.9001 26.7366 19.3837 25.259 19.3837 23.318V15.318H21.2478V23.1344C21.2478 24.5857 21.6066 25.6874 22.3242 26.4393C23.0418 27.1913 24.0657 27.5672 25.3959 27.5672C26.8487 27.5672 27.9952 27.1299 28.8354 26.2557C29.6755 25.3639 30.0956 24.1311 30.0956 22.5573V15.318H31.9596ZM44.2951 15.2131C45.5902 15.2131 46.763 15.5103 47.8132 16.1049C48.8634 16.6819 49.6859 17.5038 50.2811 18.5704C50.876 19.6371 51.1737 20.8524 51.1737 22.2163C51.1737 23.5978 50.876 24.8218 50.2811 25.8885C49.6859 26.9552 48.8634 27.7857 47.8132 28.3803C46.7803 28.9573 45.6078 29.2459 44.2951 29.2459C43.1749 29.2459 42.1596 29.0184 41.2496 28.5639C40.357 28.0918 39.6219 27.4098 39.0443 26.518V34.2032H37.1802V15.318H38.9655V18.0459C39.5255 17.1366 40.2606 16.4371 41.1709 15.9475C42.0984 15.4579 43.1399 15.2131 44.2951 15.2131ZM44.1639 27.5934C45.1263 27.5934 46.0016 27.3749 46.7893 26.9377C47.5769 26.483 48.1894 25.8448 48.6271 25.0229C49.0821 24.2011 49.3097 23.2655 49.3097 22.2163C49.3097 21.1672 49.0821 20.2404 48.6271 19.436C48.1894 18.6142 47.5769 17.9759 46.7893 17.5213C46.0016 17.0666 45.1263 16.8393 44.1639 16.8393C43.1835 16.8393 42.2998 17.0666 41.5122 17.5213C40.7419 17.9759 40.1294 18.6142 39.6744 19.436C39.2367 20.2404 39.018 21.1672 39.018 22.2163C39.018 23.2655 39.2367 24.2011 39.6744 25.0229C40.1294 25.8448 40.7419 26.483 41.5122 26.9377C42.2998 27.3749 43.1835 27.5934 44.1639 27.5934ZM66.9979 22.7934H55.4461C55.5511 24.2273 56.1024 25.3901 57.1001 26.2819C58.0977 27.1562 59.3579 27.5934 60.8807 27.5934C61.7384 27.5934 62.526 27.4447 63.2436 27.1475C63.9613 26.8327 64.5825 26.3781 65.1076 25.7836L66.1578 26.9901C65.5453 27.7245 64.7752 28.284 63.8474 28.6688C62.9374 29.0536 61.9308 29.2459 60.8282 29.2459C59.4104 29.2459 58.1502 28.9487 57.0476 28.3541C55.9625 27.7421 55.1137 26.9028 54.5009 25.836C53.8884 24.7693 53.582 23.5628 53.582 22.2163C53.582 20.8699 53.8708 19.6634 54.4484 18.5967C55.0436 17.53 55.8488 16.6994 56.8638 16.1049C57.8966 15.5103 59.0518 15.2131 60.3293 15.2131C61.6071 15.2131 62.7537 15.5103 63.7686 16.1049C64.7839 16.6994 65.5802 17.53 66.1578 18.5967C66.7354 19.6459 67.0242 20.8524 67.0242 22.2163L66.9979 22.7934ZM60.3293 16.8131C58.9993 16.8131 57.879 17.2415 56.9688 18.0983C56.0762 18.9377 55.5687 20.0393 55.4461 21.4032H65.2389C65.1165 20.0393 64.6001 18.9377 63.6899 18.0983C62.7972 17.2415 61.6772 16.8131 60.3293 16.8131ZM72.6037 18.0196C73.0411 17.0929 73.6888 16.3934 74.5465 15.9213C75.4216 15.4491 76.498 15.2131 77.7758 15.2131V17.0229L77.3294 16.9967C75.8765 16.9967 74.7389 17.4426 73.9164 18.3344C73.0936 19.2262 72.6825 20.4765 72.6825 22.0852V29.1147H70.8184V15.318H72.6037V18.0196Z" fill="black"/>
<path d="M137.148 37.6779L152.607 31.8982L150.945 46.7299L137.148 37.6779Z" fill="#6C63FE"/>
</g>
<defs>
<clipPath id="clip0">
<rect x="0.748047" y="0.524536" width="157" height="48" fill="white"/>
</clipPath>
</defs>
</svg>
